<?xml version="1.0" encoding="UTF-8" standalone="no"?>
<svg
   xmlns:dc="http://purl.org/dc/elements/1.1/"
   xmlns:cc="http://creativecommons.org/ns#"
   xmlns:rdf="http://www.w3.org/1999/02/22-rdf-syntax-ns#"
   xmlns:svg="http://www.w3.org/2000/svg"
   xmlns="http://www.w3.org/2000/svg"
   xmlns:sodipodi="http://sodipodi.sourceforge.net/DTD/sodipodi-0.dtd"
   xmlns:inkscape="http://www.inkscape.org/namespaces/inkscape"
   inkscape:version="1.0 (4035a4fb49, 2020-05-01)"
   sodipodi:docname="Dexalot_Logo.a67897f1.svg"
   id="svg11"
   version="1.1"
   fill="none"
   viewBox="0 0 120 120"
   height="120"
   width="120">
  <metadata
     id="metadata15">
    <rdf:RDF>
      <cc:Work
         rdf:about="">
        <dc:format>image/svg+xml</dc:format>
        <dc:type
           rdf:resource="http://purl.org/dc/dcmitype/StillImage" />
      </cc:Work>
    </rdf:RDF>
  </metadata>
  <sodipodi:namedview
     inkscape:current-layer="svg11"
     inkscape:window-maximized="1"
     inkscape:window-y="-8"
     inkscape:window-x="-8"
     inkscape:cy="60"
     inkscape:cx="60"
     inkscape:zoom="6.125"
     showgrid="false"
     id="namedview13"
     inkscape:window-height="1009"
     inkscape:window-width="1920"
     inkscape:pageshadow="2"
     inkscape:pageopacity="0"
     guidetolerance="10"
     gridtolerance="10"
     objecttolerance="10"
     borderopacity="1"
     bordercolor="#666666"
     pagecolor="#ffffff" />
  <path
     style="fill:url(#paint0_linear_119_28)"
     id="path2"
     fill="url(#paint0_linear_119_28)"
     d="M 111.20599,47.7621 88.063993,62.5594 C 106.31899,48.1206 106.31899,32.5634 106.31899,32.5634 L 82.095893,56.2075 c 16.3034,-26.7412 10.3353,-37.7531 10.3353,-37.7531 l -19.2944,32.2185 c -4.2324,-1.1544 -8.5946,-1.7377 -12.9753,-1.735 h -0.3089 c -4.3808,-0.0027 -8.743,0.5806 -12.9753,1.735 v 0 l -19.2945,-32.2185 c 0,0 -6.7544,10.1086 9.549,36.8498 l -23.3949,-22.7408 c 0,0 -2.3872,13.8222 17.1178,29.1357 -0.0983,0.1577 -22.0606999,-13.937 -22.0606999,-13.937 0,0 -0.56175,13.2774 18.7887999,23.9309 v 0.3441 c 0,14.4389 14.4217,29.3508 32.2978,29.5085 h 0.309 c 17.848,-0.1577 32.2977,-15.0696 32.2977,-29.5085 V 71.693 C 111.76799,61.0395 111.20599,47.7621 111.20599,47.7621 Z M 49.081893,86.5476 c 0,0 -5.7293,0.3728 -9.0293,-2.9967 -3.3,-3.3695 -2.8928,-9.2053 -2.8928,-9.2053 0,0 5.7294,-0.3871 9.0294,2.9967 3.3,3.3839 2.8927,9.2053 2.8927,9.2053 z m 30.8936,-2.9967 c -3.3,3.3695 -9.0153,2.9967 -9.0153,2.9967 0,0 -0.3651,-5.8357 2.9349,-9.2053 3.3,-3.3695 9.0153,-2.9967 9.0153,-2.9967 0,0 0.3229,5.8358 -2.9911,9.2053 z" />
  <defs
     id="defs9">
    <linearGradient
       gradientTransform="translate(-1.2900069,6.7061)"
       gradientUnits="userSpaceOnUse"
       y2="8.33702"
       x2="93.8233"
       y1="75.5687"
       x1="32.215"
       id="paint0_linear_119_28">
      <stop
         id="stop4"
         stop-color="#EB1357" />
      <stop
         id="stop6"
         stop-color="#DB23C8"
         offset="1" />
    </linearGradient>
  </defs>
</svg>
